<?xml version="1.0" encoding="UTF-8"?>
<svg id="Layer_1" xmlns="http://www.w3.org/2000/svg" version="1.1" viewBox="0 0 963 1024">
  <!-- Generator: Adobe Illustrator 29.8.3, SVG Export Plug-In . SVG Version: 2.1.1 Build 3)  -->
  <defs>
    <style>
      .st0 {
        fill: #fff;
      }
    </style>
  </defs>
  <path class="st0" d="M362.84,686.16c4.34,84.61,63.83,159.77,147.19,178.32,52.47,11.67,103.88,1.94,147.54-29.1,56.09-39.88,85.96-108.72,83.18-177.12-38.84-10.03-73.86-39.4-84.61-78.88-5.86-21.52-5.13-41.75,1.45-62.98,29.36-94.71,168.94-100.28,206.73-9.21,27.36,65.95-12.95,132.44-79.01,149.93-.69,58.39-16.29,118.24-52.06,164.94-32.33,42.2-82.04,73.82-134.21,84.79-141.27,29.72-274.1-78.33-280.19-220.68-36.04-1.44-68.65-21.26-94.52-44.98-85.53-78.41-121.66-232.67-132.46-344.54-6.3-65.23-.08-132.53,75.95-149.03,5.13-1.11,15.08-1.1,18.98-3.02,1.86-.92,7.81-13.62,11.56-17.44,36.39-37.12,98.78.4,81.95,51.95-9.55,29.28-48.57,40.48-74.15,25.23-9-5.37-12.8-12.33-17.89-21.02-28.28,3.44-54.85,29.72-57.4,58.35-2.39,26.78,3.49,69.38,7.13,96.84,15.24,114.95,55.91,220.52,188.37,227.63,175.73,9.44,215.65-143.72,221.5-287.48,1.25-30.6,4.91-61.5-23.1-81.92-4.91-3.58-29.28-16.08-33.92-13.14-.67.42-6.76,10.77-9,13.04-34.79,35.3-96.59,2-82.28-48.28,11.35-39.86,63.04-47.67,87.81-15.24,2.23,2.92,3.13,6.63,5.02,8.98,3.27,4.07,29.97,8.68,37.45,11.55,74.79,28.75,63.15,111.52,54.87,175.85-7.39,57.38-21.62,121.02-41.84,175.16-29.71,79.57-87.75,171.26-180.02,181.48ZM756.65,488.46c-87.15,7.41-60.86,145.25,22.64,119.64,70.9-21.75,47.53-125.61-22.64-119.64ZM455.85,580.17c-10.36,3.45-20.13,8.48-30.48,12.01-51.74,17.62-105.83,18.67-158.29,3.25-13.76-4.05-26.81-9.86-40.21-14.78,29.81,43.53,79.17,72.02,133.2,64.23,38.95-5.61,74.99-32.05,95.78-64.71Z"/>
</svg>